<svg width="50" height="50" viewBox="0 0 50 50" fill="none" xmlns="http://www.w3.org/2000/svg">
<path d="M29.3154 49.577L29.3299 49.5807C30.3005 49.9966 31.3785 50.1154 32.4057 49.8815C42.4785 47.5681 50 38.4739 50 27.6048V15.6476C49.1146 15.8407 48.1968 16.0598 47.3033 16.3086H47.2949C42.9058 17.5266 39.0654 19.4093 41.8485 22.0198C47.254 27.0849 37.2581 29.053 30.4383 30.5309C19.7827 32.8407 10.3155 41.4149 29.3154 49.577Z" fill="#2855A3"/>
<path d="M0 22.8488V27.5877C0 29.5343 1.88647 30.9019 3.71788 30.2924C5.89243 29.5648 8.40846 28.9324 11.3114 28.4105C35.8729 24.0183 32.1106 22.2088 30.2294 21.0203C28.3482 19.8318 25.1023 17.0395 35.1722 15.0014C40.344 13.95 45.8606 13.371 50 13.0548V7.716e-06H22.6433C10.1377 7.716e-06 0 10.2282 0 22.8488Z" fill="#6DD0F6"/>
<path d="M47.3033 16.3086C48.3904 15.9967 50 15.6476 50 15.6476C49.1146 15.8407 48.1968 16.0598 47.3033 16.3086Z" fill="#C4C2C1"/>
<path d="M29.3154 49.577C21.3926 46.1755 18.4197 42.6998 18.4189 39.6362C18.4176 35.3546 24.2261 31.8789 30.4382 30.5309C35.8995 29.3464 43.3974 27.8499 43.3922 24.7009C43.3911 23.9174 42.9253 23.0298 41.8485 22.0198C41.1905 21.4034 40.9027 20.8278 40.905 20.2894C40.9112 18.5589 43.9431 17.2369 47.2948 16.3086H47.3033C48.1968 16.0598 49.1146 15.8407 50 15.6476V19.491C46.6884 20.6904 44.4672 22.3503 46.7664 24.5004C52.1723 29.5692 42.176 31.5335 35.3563 33.0115C25.7787 35.091 17.1597 42.2282 29.3154 49.577Z" fill="#22427A"/>
</svg>
