<svg width="50" height="50" viewBox="0 0 50 50" fill="none" xmlns="http://www.w3.org/2000/svg">
<path d="M24.1913 7.05052C26.6243 7.05277 29.0296 7.5854 31.2502 8.6134C33.4708 9.64152 35.4568 11.142 37.0789 13.017L42.1569 8.28365C38.9065 4.54627 34.6421 1.90865 29.92 0.71515C25.1981 -0.478474 20.2378 -0.172601 15.6863 1.59277C11.135 3.35815 7.20387 6.50102 4.40613 10.6113C1.60827 14.7216 0.0737634 19.6084 0.00259256 24.6341C-0.0685783 29.6598 1.32706 34.591 4.00725 38.7841C6.68757 42.9774 10.5279 46.2379 15.0275 48.1403C19.5268 50.0425 24.4764 50.4984 29.2303 49.4483C33.984 48.3981 38.3213 45.8908 41.6761 42.2534L36.7134 37.3806C34.7365 39.5183 32.2781 41.116 29.5581 42.0311C26.8381 42.9463 23.9411 43.1503 21.1262 42.6248C18.3112 42.0994 15.6663 40.861 13.4274 39.0203C11.1884 37.1795 9.42554 34.7939 8.29635 32.0765C7.16704 29.3591 6.70654 26.3948 6.95601 23.4485C7.2056 20.5021 8.15724 17.6656 9.72597 15.1926C11.2948 12.7195 13.4318 10.6869 15.9461 9.27652C18.4603 7.86602 21.2733 7.12177 24.1337 7.11015L24.1913 7.05052Z" fill="#414042" fill-opacity="0.25"/>
<path d="M17.251 17.4004C17.251 16.629 17.4763 16.0094 17.927 15.5414C18.3776 15.0734 18.993 14.8394 19.773 14.8394C20.5616 14.8394 21.3676 14.9174 22.191 15.0734L21.931 17.1534C21.073 16.954 20.4836 16.8544 20.163 16.8544C19.7556 16.8544 19.552 17.019 19.552 17.3484C19.552 17.4784 19.6473 17.604 19.838 17.7254C20.0373 17.8467 20.2756 17.9767 20.553 18.1154C20.8303 18.2454 21.1076 18.4057 21.385 18.5964C21.6623 18.7784 21.8963 19.0427 22.087 19.3894C22.2863 19.736 22.386 20.1347 22.386 20.5854C22.386 21.4087 22.165 22.0457 21.723 22.4964C21.281 22.947 20.6526 23.1724 19.838 23.1724C19.032 23.1724 18.2433 23.0467 17.472 22.7954L17.615 20.8584C18.5423 21.127 19.188 21.2614 19.552 21.2614C19.916 21.2614 20.098 21.101 20.098 20.7804C20.098 20.6157 19.9983 20.464 19.799 20.3254C19.6083 20.1867 19.3743 20.048 19.097 19.9094C18.8196 19.7707 18.538 19.6104 18.252 19.4284C17.9746 19.2464 17.7363 18.982 17.537 18.6354C17.3463 18.2887 17.251 17.877 17.251 17.4004ZM28.3758 16.8154L26.7638 23.2244C26.5992 23.8657 26.3565 24.312 26.0358 24.5634C25.7152 24.8234 25.1908 24.9534 24.4628 24.9534H23.1628L22.9678 23.2764H23.6958C23.9905 23.2764 24.1378 23.1594 24.1378 22.9254C24.1378 22.8734 24.1205 22.7607 24.0858 22.5874L22.5908 16.8154H24.9048L25.4898 20.7024H25.6068L26.2438 16.8154H28.3758Z" fill="#104E7C"/>
<path d="M23.1401 30.4173C23.1401 30.9027 23.0664 31.3057 22.9191 31.6263C22.7718 31.947 22.5421 32.2373 22.2301 32.4973L23.3091 35.9293H20.9041L20.0981 33.0173H19.7991V35.9293H17.6151V27.8563H20.6311C21.4978 27.8563 22.1304 28.06 22.5291 28.4673C22.9364 28.8747 23.1401 29.5247 23.1401 30.4173ZM20.1371 31.6523C20.3624 31.6523 20.5228 31.5873 20.6181 31.4573C20.7134 31.3273 20.7611 31.0933 20.7611 30.7553C20.7611 30.4087 20.7134 30.1703 20.6181 30.0403C20.5228 29.9017 20.3668 29.8323 20.1501 29.8323H19.7991V31.6523H20.1371ZM26.4569 31.4053C26.2316 31.4053 26.0843 31.4833 26.0149 31.6393C25.9456 31.7867 25.9109 32.0163 25.9109 32.3283H27.0419V32.0163C27.0419 31.609 26.8469 31.4053 26.4569 31.4053ZM26.5089 29.5463C27.4016 29.5463 28.0386 29.763 28.4199 30.1963C28.8099 30.621 29.0049 31.232 29.0049 32.0293C29.0049 32.1333 28.9746 32.6013 28.9139 33.4333H25.9499C25.9499 34.0833 26.2489 34.4083 26.8469 34.4083C27.1329 34.4083 27.6919 34.3087 28.5239 34.1093L28.7059 35.7213C27.9779 35.9467 27.2499 36.0593 26.5219 36.0593C25.6293 36.0593 24.9446 35.769 24.4679 35.1883C23.9913 34.599 23.7529 33.8017 23.7529 32.7963C23.7529 30.6297 24.6716 29.5463 26.5089 29.5463Z" fill="#104E7C"/>
<path d="M37.2421 15.2558C39.168 12.9241 43.2878 11.2188 43.2878 11.2188C43.2878 11.2188 40.0082 14.2836 38.6251 17.0486C37.2421 19.8137 37.2421 21.1909 38.6251 25.2564C39.6841 28.3693 40.6088 28.9301 42.235 33.1574L42.2546 33.2085C42.8981 34.8806 43.5719 36.6317 41.9341 38.8338C41.1817 39.8455 40.43 40.2913 40.43 40.2913C40.43 40.2913 41.2573 39.2174 41.5581 37.5298C41.8904 35.6658 41.2562 34.5793 40.7961 33.6309C39.4061 30.7653 36.9513 27.8801 35.7674 24.7962C34.1751 20.6489 35.3161 17.5876 37.2421 15.2558Z" fill="#FF0000"/>
</svg>
