<svg width="48" height="48" viewBox="0 0 48 48" fill="none" xmlns="http://www.w3.org/2000/svg">
<rect width="48" height="48" rx="5" fill="white"/>
<path d="M11.598 23.796H14.942V26H10.116C9.28 25.2147 8.64667 24.2203 8.216 23.017C7.78533 21.8137 7.57 20.5787 7.57 19.312C7.57 18.0327 7.81067 16.804 8.292 15.626C8.77333 14.448 9.489 13.4727 10.439 12.7H14.942V14.98H11.598C11.256 15.3727 10.9583 16.006 10.705 16.88C10.4643 17.754 10.344 18.59 10.344 19.388C10.344 20.186 10.4643 21.022 10.705 21.896C10.9583 22.77 11.256 23.4033 11.598 23.796ZM20.4443 18.286H19.0193C18.8293 18.514 18.6709 18.8307 18.5443 19.236C18.4303 19.6413 18.3733 20.034 18.3733 20.414H21.0903C21.1156 20.034 21.0649 19.6413 20.9383 19.236C20.8116 18.818 20.6469 18.5013 20.4443 18.286ZM23.0283 24.005V26H18.2023C17.3156 25.4047 16.6886 24.67 16.3213 23.796C15.9666 22.9093 15.7893 22.0163 15.7893 21.117C15.7893 19.0397 16.5746 17.431 18.1453 16.291H21.2233C22.0719 16.9117 22.6483 17.5703 22.9523 18.267C23.2563 18.9637 23.4083 19.6667 23.4083 20.376C23.4083 21.0853 23.3513 21.6933 23.2373 22.2H18.5063C18.5443 22.4913 18.6519 22.827 18.8293 23.207C19.0193 23.5743 19.2219 23.8403 19.4373 24.005H23.0283ZM29.0722 18.286H27.6472C27.4572 18.514 27.2989 18.8307 27.1722 19.236C27.0582 19.6413 27.0012 20.034 27.0012 20.414H29.7182C29.7435 20.034 29.6929 19.6413 29.5662 19.236C29.4395 18.818 29.2749 18.5013 29.0722 18.286ZM31.6562 24.005V26H26.8302C25.9435 25.4047 25.3165 24.67 24.9492 23.796C24.5945 22.9093 24.4172 22.0163 24.4172 21.117C24.4172 19.0397 25.2025 17.431 26.7732 16.291H29.8512C30.6999 16.9117 31.2762 17.5703 31.5802 18.267C31.8842 18.9637 32.0362 19.6667 32.0362 20.376C32.0362 21.0853 31.9792 21.6933 31.8652 22.2H27.1342C27.1722 22.4913 27.2799 22.827 27.4572 23.207C27.6472 23.5743 27.8499 23.8403 28.0652 24.005H31.6562Z" fill="url(#paint0_linear_9_5)"/>
<path d="M13.344 26.6H16.224V28.04H13.92L13.884 28.112L15.804 31.616C16.196 32.32 16.392 32.856 16.392 33.224C16.392 34.032 16.124 34.624 15.588 35H12.408V33.608H14.892L14.928 33.536L12.768 29.66C12.456 29.1 12.3 28.644 12.3 28.292C12.3 27.46 12.648 26.896 13.344 26.6ZM19.8818 30.128H18.9818C18.8618 30.272 18.7618 30.472 18.6818 30.728C18.6098 30.984 18.5738 31.232 18.5738 31.472H20.2898C20.3058 31.232 20.2738 30.984 20.1938 30.728C20.1138 30.464 20.0098 30.264 19.8818 30.128ZM21.5138 33.74V35H18.4658C17.9058 34.624 17.5098 34.16 17.2778 33.608C17.0538 33.048 16.9418 32.484 16.9418 31.916C16.9418 30.604 17.4378 29.588 18.4298 28.868H20.3738C20.9098 29.26 21.2738 29.676 21.4658 30.116C21.6578 30.556 21.7538 31 21.7538 31.448C21.7538 31.896 21.7178 32.28 21.6458 32.6H18.6578C18.6818 32.784 18.7498 32.996 18.8618 33.236C18.9818 33.468 19.1098 33.636 19.2458 33.74H21.5138ZM22.571 35V28.868H23.711L24.011 29.516C24.331 29.084 24.735 28.868 25.223 28.868H25.691V30.476H24.167V35H22.571ZM29.8113 35H27.5913C27.2073 34.688 26.9033 34.276 26.6793 33.764C26.4553 33.252 26.3433 32.684 26.3433 32.06V28.868H27.9393V32.012C27.9393 32.716 28.0713 33.292 28.3353 33.74H29.0673C29.3313 33.268 29.4633 32.696 29.4633 32.024V28.868H31.0593V32C31.0593 32.632 30.9473 33.212 30.7233 33.74C30.4993 34.268 30.1953 34.688 29.8113 35ZM34.7646 30.128H33.8646C33.7446 30.272 33.6446 30.472 33.5646 30.728C33.4926 30.984 33.4566 31.232 33.4566 31.472H35.1726C35.1886 31.232 35.1566 30.984 35.0766 30.728C34.9966 30.464 34.8926 30.264 34.7646 30.128ZM36.3966 33.74V35H33.3486C32.7886 34.624 32.3926 34.16 32.1606 33.608C31.9366 33.048 31.8246 32.484 31.8246 31.916C31.8246 30.604 32.3206 29.588 33.3126 28.868H35.2566C35.7926 29.26 36.1566 29.676 36.3486 30.116C36.5406 30.556 36.6366 31 36.6366 31.448C36.6366 31.896 36.6006 32.28 36.5286 32.6H33.5406C33.5646 32.784 33.6326 32.996 33.7446 33.236C33.8646 33.468 33.9926 33.636 34.1286 33.74H36.3966ZM37.4538 35V28.868H38.5938L38.8938 29.516C39.2138 29.084 39.6178 28.868 40.1058 28.868H40.5738V30.476H39.0498V35H37.4538Z" fill="url(#paint1_linear_9_5)"/>
<defs>
<linearGradient id="paint0_linear_9_5" x1="20" y1="28" x2="20" y2="10" gradientUnits="userSpaceOnUse">
<stop/>
<stop offset="0.68" stop-color="#0F1895"/>
</linearGradient>
<linearGradient id="paint1_linear_9_5" x1="27" y1="39" x2="27" y2="21" gradientUnits="userSpaceOnUse">
<stop/>
<stop offset="0.68" stop-color="#0F1895"/>
</linearGradient>
</defs>
</svg>
