<svg width="48" height="48" viewBox="0 0 48 48" fill="none" xmlns="http://www.w3.org/2000/svg">
<rect width="48" height="48" rx="5" fill="white"/>
<path d="M2.624 29V19.9H7.369V21.46H4.405V23.735H6.979V25.243H4.405V29H2.624ZM9.77207 19.9V29H8.05607V19.9H9.77207ZM14.0201 25.997H12.6291C12.4471 26.2223 12.3561 26.504 12.3561 26.842C12.3561 27.18 12.4515 27.4443 12.6421 27.635H14.0201V25.997ZM11.2251 22.357H14.4491C14.9691 22.669 15.3115 23.0287 15.4761 23.436C15.6408 23.8347 15.7231 24.3807 15.7231 25.074V27.024C15.7231 27.7433 15.7405 28.402 15.7751 29H14.2931L14.0591 28.532C13.7211 28.844 13.2445 29 12.6291 29H11.8101C11.0735 28.5147 10.7051 27.817 10.7051 26.907C10.7051 25.9883 11.0821 25.2647 11.8361 24.736H13.0581C13.3961 24.736 13.7125 24.84 14.0071 25.048V24.398C14.0071 24.06 13.8598 23.8347 13.5651 23.722H11.2251V22.357ZM17.0281 26.101V23.722H16.1311V22.357H17.0281V20.55H18.7571V22.357H19.8231V23.722H18.7571V26.517C18.7571 27.0457 18.8481 27.4183 19.0301 27.635H19.8231V29H17.9771C17.5178 28.5753 17.2404 28.116 17.1451 27.622C17.0671 27.206 17.0281 26.699 17.0281 26.101ZM23.59 22.357H25.306V27.635H26.216C26.502 27.1757 26.645 26.543 26.645 25.737V22.357H28.374V25.815C28.374 27.2797 27.9666 28.3413 27.152 29H26.073C25.4056 29 24.8553 28.8007 24.422 28.402C23.9886 28.8007 23.4556 29 22.823 29H21.744C20.9293 28.428 20.522 27.3663 20.522 25.815V22.357H22.251V25.815C22.251 26.5863 22.3896 27.193 22.667 27.635H23.59V22.357ZM33.3362 29H30.5022C29.6355 28.194 29.2022 27.0933 29.2022 25.698C29.2022 24.996 29.2975 24.385 29.4882 23.865C29.6875 23.345 29.9995 22.8423 30.4242 22.357H33.4662C33.9169 22.877 34.2245 23.384 34.3892 23.878C34.5539 24.3633 34.6362 24.97 34.6362 25.698C34.6362 27.0933 34.2029 28.194 33.3362 29ZM31.4252 27.635H32.4132C32.7252 27.0283 32.8812 26.3393 32.8812 25.568C32.8812 24.7967 32.7209 24.1813 32.4002 23.722H31.4252C31.1132 24.164 30.9572 24.7923 30.9572 25.607C30.9572 26.413 31.1132 27.089 31.4252 27.635ZM35.5798 29V22.357H36.8148L37.1398 23.059C37.4865 22.591 37.9241 22.357 38.4528 22.357H38.9598V24.099H37.3088V29H35.5798ZM39.7055 29V19.9H41.4345V24.723H41.6165L42.8385 22.357H44.5285L42.9945 25.256L44.5415 29H42.8255L41.6295 26.088H41.4345V29H39.7055Z" fill="url(#paint0_linear_9_11)"/>
<defs>
<linearGradient id="paint0_linear_9_11" x1="24" y1="33" x2="24" y2="15" gradientUnits="userSpaceOnUse">
<stop/>
<stop offset="0.521" stop-color="#6AAA26"/>
</linearGradient>
</defs>
</svg>
