<svg width="48" height="48" viewBox="0 0 48 48" fill="none" xmlns="http://www.w3.org/2000/svg">
<g clip-path="url(#clip0_1_2)">
<rect width="48" height="48" rx="5" fill="white"/>
<path d="M17.68 34.36H24.72V39H14.56C12.8 37.3467 11.4667 35.2533 10.56 32.72C9.65333 30.1867 9.2 27.5867 9.2 24.92C9.2 22.2267 9.70667 19.64 10.72 17.16C11.7333 14.68 13.24 12.6267 15.24 11H24.72V15.8H17.68C16.96 16.6267 16.3333 17.96 15.8 19.8C15.2933 21.64 15.04 23.4 15.04 25.08C15.04 26.76 15.2933 28.52 15.8 30.36C16.3333 32.2 16.96 33.5333 17.68 34.36ZM26.3744 34.36H30.4944C30.9744 33.7467 31.281 33.04 31.4144 32.24C31.5477 31.4133 31.6144 29.76 31.6144 27.28V11H37.0944V25.4C37.0944 27.1867 37.0544 28.5733 36.9744 29.56C36.921 30.5467 36.761 31.6667 36.4944 32.92C35.9877 35.2933 34.721 37.32 32.6944 39H26.3744V34.36Z" fill="url(#paint0_linear_1_2)"/>
</g>
<defs>
<linearGradient id="paint0_linear_1_2" x1="23.5" y1="52" x2="23.5" y2="-4" gradientUnits="userSpaceOnUse">
<stop offset="0.32" stop-color="#6871EB"/>
<stop offset="1" stop-color="#2593E8"/>
</linearGradient>
<clipPath id="clip0_1_2">
<rect width="48" height="48" rx="5" fill="white"/>
</clipPath>
</defs>
</svg>
