<svg width="48" height="48" viewBox="0 0 48 48" fill="none" xmlns="http://www.w3.org/2000/svg">
<rect width="48" height="48" rx="5" fill="white"/>
<path d="M17.128 8.7H21.688V10.98H18.04L17.983 11.094L21.023 16.642C21.6437 17.7567 21.954 18.6053 21.954 19.188C21.954 20.4673 21.5297 21.4047 20.681 22H15.646V19.796H19.579L19.636 19.682L16.216 13.545C15.722 12.6583 15.475 11.9363 15.475 11.379C15.475 10.0617 16.026 9.16867 17.128 8.7ZM23.2782 22V8.7H30.2132V10.98H25.8812V14.305H29.6432V16.509H25.8812V22H23.2782ZM17.128 26.7H21.688V28.98H18.04L17.983 29.094L21.023 34.642C21.6437 35.7567 21.954 36.6053 21.954 37.188C21.954 38.4673 21.5297 39.4047 20.681 40H15.646V37.796H19.579L19.636 37.682L16.216 31.545C15.722 30.6583 15.475 29.9363 15.475 29.379C15.475 28.0617 16.026 27.1687 17.128 26.7ZM28.9402 40L28.5412 37.891H25.5392L25.1402 40H22.5562L25.1212 26.7H29.0542L31.4862 40H28.9402ZM27.0022 29.17L26.2612 33.597L25.8432 35.858H28.2182L27.7812 33.597L27.0402 29.17H27.0022Z" fill="url(#paint0_linear_9_2)"/>
<defs>
<linearGradient id="paint0_linear_9_2" x1="23.5" y1="42" x2="23.5" y2="6" gradientUnits="userSpaceOnUse">
<stop/>
<stop offset="0.68" stop-color="#0F144D"/>
</linearGradient>
</defs>
</svg>
