<svg width="150" height="150" viewBox="0 0 150 150" fill="none" xmlns="http://www.w3.org/2000/svg">
<path d="M72.5738 21.1516C79.873 21.1583 87.0889 22.7562 93.7506 25.8402C100.412 28.9246 106.371 33.4261 111.237 39.0511L126.471 24.8509C116.72 13.6388 103.926 5.72595 89.7601 2.14545C75.5942 -1.43542 60.7134 -0.517802 47.059 4.77832C33.405 10.0744 21.6116 19.5031 13.2184 31.8338C4.82482 44.1649 0.22129 58.8252 0.00777768 73.9024C-0.205735 88.9793 3.98118 103.773 12.0218 116.352C20.0627 128.932 31.5838 138.714 45.0824 144.421C58.5805 150.128 73.4293 151.495 87.6908 148.345C101.952 145.194 114.964 137.672 125.028 126.76L110.14 112.142C104.209 118.555 96.8342 123.348 88.6743 126.093C80.5143 128.839 71.8232 129.451 63.3786 127.874C54.9337 126.298 46.9988 122.583 40.2821 117.061C33.5653 111.539 28.2766 104.382 24.8891 96.2296C21.5011 88.0774 20.1196 79.1843 20.868 70.3456C21.6168 61.5064 24.4717 52.9969 29.1779 45.5779C33.8845 38.1586 40.2954 32.0607 47.8383 27.8296C55.3808 23.5981 63.8198 21.3653 72.4012 21.3304L72.5738 21.1516Z" fill="#414042" fill-opacity="0.25"/>
<path d="M51.7209 53.0692C51.7209 50.8739 52.3622 49.1102 53.6449 47.7782C54.9276 46.4462 56.6789 45.7802 58.8989 45.7802C61.1436 45.7802 63.4376 46.0022 65.7809 46.4462L65.0409 52.3662C62.5989 51.7989 60.9216 51.5152 60.0089 51.5152C58.8496 51.5152 58.2699 51.9839 58.2699 52.9212C58.2699 53.2912 58.5412 53.6489 59.0839 53.9942C59.6512 54.3395 60.3296 54.7095 61.1189 55.1042C61.9082 55.4742 62.6976 55.9305 63.4869 56.4732C64.2762 56.9912 64.9422 57.7435 65.4849 58.7302C66.0522 59.7169 66.3359 60.8515 66.3359 62.1342C66.3359 64.4775 65.7069 66.2905 64.4489 67.5732C63.1909 68.8559 61.4026 69.4972 59.0839 69.4972C56.7899 69.4972 54.5452 69.1395 52.3499 68.4242L52.7569 62.9112C55.3962 63.6759 57.2339 64.0582 58.2699 64.0582C59.3059 64.0582 59.8239 63.6019 59.8239 62.6892C59.8239 62.2205 59.5402 61.7889 58.9729 61.3942C58.4302 60.9995 57.7642 60.6049 56.9749 60.2102C56.1856 59.8155 55.3839 59.3592 54.5699 58.8412C53.7806 58.3232 53.1022 57.5709 52.5349 56.5842C51.9922 55.5975 51.7209 54.4259 51.7209 53.0692ZM83.3839 51.4042L78.7959 69.6452C78.3273 71.4705 77.6366 72.7409 76.7239 73.4562C75.8113 74.1962 74.3189 74.5662 72.2469 74.5662H68.5469L67.9919 69.7932H70.0639C70.9026 69.7932 71.3219 69.4602 71.3219 68.7942C71.3219 68.6462 71.2726 68.3255 71.1739 67.8322L66.9189 51.4042H73.5049L75.1699 62.4672H75.5029L77.3159 51.4042H83.3839Z" fill="#104E7C"/>
<path d="M68.482 92.1001C68.482 93.4814 68.2724 94.6284 67.853 95.5411C67.4337 96.4538 66.78 97.2801 65.892 98.0201L68.963 107.788H62.118L59.824 99.5001H58.973V107.788H52.757V84.8111H61.341C63.8077 84.8111 65.6084 85.3908 66.743 86.5501C67.9024 87.7094 68.482 89.5594 68.482 92.1001ZM59.935 95.6151C60.5764 95.6151 61.0327 95.4301 61.304 95.0601C61.5754 94.6901 61.711 94.0241 61.711 93.0621C61.711 92.0754 61.5754 91.3971 61.304 91.0271C61.0327 90.6324 60.5887 90.4351 59.972 90.4351H58.973V95.6151H59.935ZM77.9222 94.9121C77.2809 94.9121 76.8616 95.1341 76.6642 95.5781C76.4669 95.9974 76.3682 96.6511 76.3682 97.5391H79.5872V96.6511C79.5872 95.4918 79.0322 94.9121 77.9222 94.9121ZM78.0702 89.6211C80.6109 89.6211 82.4239 90.2378 83.5092 91.4711C84.6192 92.6798 85.1742 94.4188 85.1742 96.6881C85.1742 96.9841 85.0879 98.3161 84.9152 100.684H76.4792C76.4792 102.534 77.3302 103.459 79.0322 103.459C79.8462 103.459 81.4372 103.175 83.8052 102.608L84.3232 107.196C82.2512 107.837 80.1792 108.158 78.1072 108.158C75.5666 108.158 73.6179 107.332 72.2612 105.679C70.9046 104.002 70.2262 101.732 70.2262 98.8711C70.2262 92.7044 72.8409 89.6211 78.0702 89.6211Z" fill="#104E7C"/>
<path d="M111.726 45.7675C117.504 38.7724 129.863 33.6564 129.863 33.6564C129.863 33.6564 120.025 42.8509 115.875 51.1459C111.726 59.441 111.726 63.5727 115.875 75.7693C119.052 85.1078 121.827 86.7903 126.705 99.4722L126.764 99.6255C128.694 104.642 130.716 109.895 125.802 116.501C123.545 119.536 121.29 120.874 121.29 120.874C121.29 120.874 123.772 117.652 124.674 112.589C125.671 106.997 123.769 103.738 122.388 100.893C118.218 92.2958 110.854 83.6402 107.302 74.3886C102.525 61.9467 105.948 52.7627 111.726 45.7675Z" fill="#FF0000"/>
</svg>
